<svg xmlns="http://www.w3.org/2000/svg" viewBox="0 0 108 108" width="108" height="108" fill="none">
  <path fill-rule="evenodd" clip-rule="evenodd" d="M10 6C7.79086 6 6 7.79086 6 10V54H54V6H10ZM41.7333 27.3334H17.7333V33.3334H41.7333V27.3334Z" fill="#455A64"/>
  <path fill-rule="evenodd" clip-rule="evenodd" d="M102 54H54V102H98C100.209 102 102 100.209 102 98V54ZM89.7333 70H65.7333V76H89.7333V70ZM89.7333 79.6H65.7333V85.6H89.7333V79.6Z" fill="#009688"/>
  <path fill-rule="evenodd" clip-rule="evenodd" d="M54 54H6V98C6 100.209 7.79086 102 10 102H54V54ZM26.7333 81.3334V90.3334H32.7333V81.3334H41.7333V75.3334H32.7333V66.3334H26.7333V75.3334H17.7333V81.3334H26.7333Z" fill="#607D8B"/>
  <path fill-rule="evenodd" clip-rule="evenodd" d="M98 6H54V54H102V10C102 7.79086 100.209 6 98 6ZM73.4907 29.7333L67.1268 36.0973L71.3694 40.3399L77.7334 33.976L84.0973 40.3399L88.34 36.0973L81.976 29.7333L88.34 23.3694L84.0973 19.1267L77.7334 25.4907L71.3694 19.1267L67.1268 23.3694L73.4907 29.7333Z" fill="#263238"/>
</svg>
